<?xml version="1.0" encoding="UTF-8"?>
<svg width="321px" height="324px" viewBox="0 0 321 324" version="1.1" xmlns="http://www.w3.org/2000/svg" xmlns:xlink="http://www.w3.org/1999/xlink">
    <!-- Generator: Sketch 41.2 (35397) - http://www.bohemiancoding.com/sketch -->
    <title>CorkJS A4</title>
    <desc>Created with Sketch.</desc>
    <defs></defs>
    <g id="Welcome" stroke="none" stroke-width="1" fill="none" fill-rule="evenodd">
        <g id="Desktop" transform="translate(-352.000000, -64.000000)">
            <g id="CorkJS-A4" transform="translate(352.000000, 64.000000)">
                <polygon id="Fill-1" fill="#BD242A" points="0.562 323.284 320.718 323.284 320.718 0.98 0.562 0.98"></polygon>
                <path d="M109.349,255.4055 C114.075,263.8465 118.374,270.9835 128.711,270.9835 C138.595,270.9835 144.83,267.0905 144.83,251.9525 L144.83,148.9685 L174.915,148.9685 L174.915,252.3615 C174.915,283.7225 156.651,297.9955 129.991,297.9955 C105.904,297.9955 91.954,285.4465 84.86,270.3315 L109.349,255.4055 Z M215.625,252.7815 C222.074,263.3815 230.464,271.1725 245.303,271.1725 C257.769,271.1725 265.732,264.9005 265.732,256.2345 C265.732,245.8485 257.551,242.1705 243.83,236.1285 L236.308,232.8805 C214.599,223.5685 200.177,211.9045 200.177,187.2455 C200.177,164.5315 217.368,147.2395 244.236,147.2395 C263.364,147.2395 277.116,153.9415 287.025,171.4885 L263.598,186.6315 C258.44,177.3205 252.875,173.6525 244.236,173.6525 C235.424,173.6525 229.839,179.2805 229.839,186.6315 C229.839,195.7175 235.429,199.3965 248.337,205.0235 L255.858,208.2675 C281.42,219.3025 295.852,230.5525 295.852,255.8455 C295.852,283.1135 274.575,298.0515 246,298.0515 C218.06,298.0515 200.009,284.6485 191.177,267.0805 L215.625,252.7815 Z" id="Fill-2" fill="#FFFFFF"></path>
            </g>
        </g>
    </g>
</svg>